<svg xmlns="http://www.w3.org/2000/svg" xmlns:xlink="http://www.w3.org/1999/xlink" viewBox="0 0 2814.47 2869.96"><defs><style>.cls-1{isolation:isolate;}.cls-2{fill:#efefef;}.cls-3,.cls-5,.cls-7,.cls-8{opacity:0.95;}.cls-3{fill:url(#linear-gradient);}.cls-4{fill:#96bfe6;}.cls-5{fill:url(#linear-gradient-2);}.cls-6{fill:#4598e6;}.cls-7{fill:url(#linear-gradient-3);}.cls-8{fill:url(#linear-gradient-4);}.cls-9{fill:#a02f07;}.cls-10{fill:#eea987;}.cls-11{fill:#d98b52;}.cls-12{fill:#b84343;}.cls-13{fill:#c78d71;}.cls-14{fill:#eea886;}.cls-15{fill:#16202e;}.cls-16{fill:#293a7d;}.cls-17{fill:#8e4f3a;}.cls-18{fill:#633029;}.cls-19{fill:#fccca2;}.cls-20{fill:#e55353;}.cls-21{fill:#a77860;}.cls-22{fill:#ebeeff;}.cls-23{fill:url(#linear-gradient-5);}.cls-24{fill:url(#linear-gradient-6);}.cls-25{fill:url(#linear-gradient-7);}.cls-26{fill:url(#linear-gradient-8);}.cls-27{fill:url(#linear-gradient-9);}.cls-28{fill:url(#linear-gradient-10);}.cls-29{fill:url(#linear-gradient-11);}.cls-30{fill:url(#linear-gradient-12);}.cls-31{fill:#26264f;}.cls-32{fill:url(#linear-gradient-13);}.cls-33{fill:#4153a4;}.cls-34{opacity:0.3;mix-blend-mode:multiply;fill:url(#linear-gradient-14);}.cls-35{fill:url(#linear-gradient-15);}</style><linearGradient id="linear-gradient" x1="792.67" y1="2090.11" x2="732.29" y2="995.69" gradientUnits="userSpaceOnUse"><stop offset="0" stop-color="#d1d7e0"/><stop offset="1" stop-color="#ebebff"/></linearGradient><linearGradient id="linear-gradient-2" x1="1761.93" y1="2533.2" x2="1761.93" y2="1410.53" xlink:href="#linear-gradient"/><linearGradient id="linear-gradient-3" x1="737.44" y1="1697.25" x2="737.44" y2="876.35" xlink:href="#linear-gradient"/><linearGradient id="linear-gradient-4" x1="1571.38" y1="902.26" x2="1571.38" y2="439.83" xlink:href="#linear-gradient"/><linearGradient id="linear-gradient-5" x1="-7066.64" y1="2210.03" x2="-7023.16" y2="2248.71" gradientTransform="matrix(-0.99, -0.14, -0.14, 0.99, -6210.15, -412.81)" gradientUnits="userSpaceOnUse"><stop offset="0" stop-color="#444b8c"/><stop offset="1" stop-color="#26264f"/></linearGradient><linearGradient id="linear-gradient-6" x1="-7950.02" y1="2248.76" x2="-7950.02" y2="2173.02" gradientTransform="matrix(-0.99, -0.14, -0.14, 0.99, -7126.35, -542.32)" gradientUnits="userSpaceOnUse"><stop offset="0" stop-color="#ffc444"/><stop offset="1" stop-color="#f36f56"/></linearGradient><linearGradient id="linear-gradient-7" x1="-7062.27" y1="2205.12" x2="-7018.79" y2="2243.79" xlink:href="#linear-gradient-5"/><linearGradient id="linear-gradient-8" x1="-7080.03" y1="2788.94" x2="-7036.54" y2="2827.61" gradientTransform="matrix(-1, 0, 0, 1, -6294.44, 0)" xlink:href="#linear-gradient-5"/><linearGradient id="linear-gradient-9" x1="-7963.45" y1="2827.69" x2="-7963.45" y2="2751.94" gradientTransform="matrix(-1, 0, 0, 1, -7219.75, 0)" xlink:href="#linear-gradient-6"/><linearGradient id="linear-gradient-10" x1="525.59" y1="2862.43" x2="242.05" y2="1717.64" gradientTransform="translate(221.69)" xlink:href="#linear-gradient-5"/><linearGradient id="linear-gradient-11" x1="-7075.65" y1="2784.02" x2="-7032.17" y2="2822.7" gradientTransform="matrix(-1, 0, 0, 1, -6294.44, 0)" xlink:href="#linear-gradient-5"/><linearGradient id="linear-gradient-12" x1="-6940.82" y1="1563.38" x2="-6705.35" y2="1859.63" gradientTransform="matrix(-1, 0.07, 0.07, 1, -6293.95, 325.86)" xlink:href="#linear-gradient-6"/><linearGradient id="linear-gradient-13" x1="-6930.89" y1="1555.48" x2="-6695.43" y2="1851.73" gradientTransform="matrix(-1, 0.07, 0.07, 1, -6293.95, 325.86)" xlink:href="#linear-gradient-6"/><linearGradient id="linear-gradient-14" x1="511.63" y1="1903.7" x2="837.91" y2="1903.7" gradientUnits="userSpaceOnUse"><stop offset="0" stop-color="#6165d7"/><stop offset="1" stop-color="#aa80f9"/></linearGradient><linearGradient id="linear-gradient-15" x1="1089.86" y1="1683.41" x2="1154.92" y2="1765.26" gradientTransform="matrix(1, 0, 0, 1, 0, 0)" xlink:href="#linear-gradient-6"/></defs><g class="cls-1"><g id="Illustration"><path class="cls-2" d="M1466.64,0C754.39-21.63,137.44,509.84,44.22,1207.19c-101.91,762.46,459,1448.5,1149.19,1558.37,858.47,136.67,1691.14-654,1616.38-1511.72C2753.46,607.61,2190.65,22,1466.64,0Z"/><rect class="cls-3" x="352.21" y="703.9" width="770.46" height="770.45" rx="58.67"/><rect class="cls-4" x="559.09" y="1298.95" width="356.71" height="17.62"/><rect class="cls-4" x="609.61" y="1354.48" width="255.66" height="17.62"/><rect class="cls-5" x="1234.7" y="1113.79" width="1054.45" height="1237.69" rx="69.12"/><rect class="cls-6" x="1712.8" y="1843.95" width="83.63" height="15.49"/><rect class="cls-4" x="1395.29" y="1985.88" width="486.64" height="29.99"/><rect class="cls-4" x="1395.29" y="2129.86" width="393.52" height="29.99"/><rect class="cls-4" x="1395.29" y="2057.87" width="230.7" height="29.99"/><path class="cls-6" d="M2009.25,1237.22v15.15h89.18v83.69h15.14v-98.84Zm-605.58,98.84h15.15v-83.69H1508v-15.15H1403.67Zm694.76,431.86v83.72h-89.18v15.15h104.32v-98.87Zm-679.61,0h-15.15v98.87H1508v-15.15h-89.17Z"/><path class="cls-6" d="M2066.36,2162.05a89.19,89.19,0,1,1,89.18-89.18A89.29,89.29,0,0,1,2066.36,2162.05Zm0-161.11a71.93,71.93,0,1,0,71.92,71.93A72,72,0,0,0,2066.36,2000.94Z"/><polygon class="cls-6" points="2060.67 2107.97 2020.15 2067.45 2032.36 2055.24 2060.67 2083.55 2100.36 2043.87 2112.56 2056.07 2060.67 2107.97"/><rect class="cls-7" x="477.78" y="732.71" width="519.31" height="445.57"/><rect class="cls-8" x="1288.36" y="317.6" width="566.05" height="509.8" rx="48.23"/><rect class="cls-6" x="1546.79" y="730.99" width="44.89" height="8.32"/><path class="cls-6" d="M1705.93,409.86V418h47.87v44.93h8.13V409.86Zm-325.09,53.06H1389V418h47.87v-8.13h-56Zm373,231.83v45h-47.87v8.13h56V694.75Zm-364.83,0h-8.13v53.08h56V739.7H1389Z"/><rect class="cls-6" x="707.46" y="1212.86" width="59.96" height="11.11"/><path class="cls-6" d="M917.15,783.94V794.8h63.94v60H992V783.94ZM482.93,854.81h10.86v-60h63.94V783.94h-74.8Zm498.16,309.66v60H917.15v10.86H992v-70.89Zm-487.3,0H482.93v70.89h74.8V1224.5H493.79Z"/><path class="cls-9" d="M944.05,1176.49H881.9c-4.09-29.76-9.11-63.73-9.11-63.73s-2.51,28-5.57,63.73H618.52c-2.27-32.1-5-56.12-6-56.61-1.43-.71-10.3,27.76-17.66,56.61H527.54c17.32-74.59,49.62-194.26,68.29-201.43,26.58-10.22,135-43.63,135-43.63h61.85s109.92,31.36,120.14,65.45C920.92,1024.06,938.86,1113.65,944.05,1176.49Z"/><path class="cls-10" d="M764.57,730.77s57.76,9.1,49,99.46-59.77,83-63.18,82.87-51.17,1.65-54.89-108.68C695.46,804.42,693.83,722.83,764.57,730.77Z"/><path class="cls-10" d="M791.53,886.49s-1.58,37.16,2,45.21-47.66,33.89-78.92,5.09c0,0,7.55-40.39,5.45-54.71S791.53,886.49,791.53,886.49Z"/><path class="cls-10" d="M814.43,804.71s6.32-6.76,8.64.08-9.81,37.4-9,38.77c0,0-1.15,2.65-2.67,1.19S814.43,804.71,814.43,804.71Z"/><path class="cls-10" d="M696.11,803.56s-6.2-6.87-8.65-.08,9.09,37.58,8.27,38.94c0,0,1.11,2.67,2.65,1.24S696.11,803.56,696.11,803.56Z"/><path class="cls-11" d="M814.4,818.57l-8.27,11s.23-24.23-1.09-28-3.36-15.41-4.47-18.15-49.6-16.32-92.43,4c0,0,1.89,17.43-2.22,19s-2.09,28.38-2.09,28.38L697,827.1s-10.41-69.53-7.84-76.77,10.76-50.82,98.63-25c0,0,27.4-5.81,32.89,13.11S814.4,818.57,814.4,818.57Z"/><path class="cls-10" d="M793.54,931.7s13,2.78-41.5,55c0,0-38.68-42.78-37.42-50S793.54,931.7,793.54,931.7Z"/><polygon class="cls-12" points="752.04 986.74 766.92 1012.19 811.07 937.23 791.95 923.9 752.04 986.74"/><polygon class="cls-12" points="752.04 986.74 715.93 929.28 695.45 942.43 732.16 1012.19 752.04 986.74"/><path class="cls-12" d="M740.85,1145.94c.44,8.48.64,18.87.66,30.55h-2c0-11.63-.22-22-.67-30.45-3.35-63.75,12.1-141.32,12.2-159.5l2,.39C752.89,1005.11,737.5,1082.46,740.85,1145.94Z"/><path class="cls-13" d="M725.45,902.47s13.72,14.51,33.1,10.64,28-12.75,28-12.75-7.65,19.19-30.06,20.95S725.45,902.47,725.45,902.47Z"/><path class="cls-14" d="M1665,1398.31a1.26,1.26,0,0,1-.27,0c-2.66-.64-6.88-13.4-7.69-16-.2-.7-.61-2-1.19-3.76-3.3-10.22-11-34.14-8-43.3,1-2.89,2.43-4.57,4.41-5,4.23-.87,9.07,4.5,9.28,4.73l.1.12,0,.15c1.1,10.07,6.46,60.38,4.15,62.69A1.13,1.13,0,0,1,1665,1398.31Zm-11.79-67.15a3.44,3.44,0,0,0-.78.08c-1.61.33-2.84,1.79-3.68,4.32-2.91,8.87,5,33.45,8,42.7.58,1.78,1,3.08,1.19,3.78,2,6.11,5.43,14.91,7,15.29,0,0,.07,0,.14,0,1.48-2-1.91-38.85-4.41-61.73C1660,1334.85,1656.39,1331.16,1653.17,1331.16Z"/><path class="cls-15" d="M1752.65,1197.73s64.93-6.8,88.33,55.9,45.42,83.23,48.18,116.18c11.15,133.23,73.37,103.09,55.87,179.89s-29.61,88.43-29.61,88.43L1766.66,1609l-150.68.49s59-29.44,45.83-92.15-45.83-165.48-27.36-235.48S1713.84,1203.08,1752.65,1197.73Z"/><path class="cls-14" d="M1832,1398.31a1.13,1.13,0,0,1-.79-.34c-2.31-2.31,3-52.62,4.15-62.69l0-.15.1-.12c.21-.23,5-5.61,9.28-4.73,2,.41,3.46,2.09,4.41,5,3,9.16-4.72,33.08-8,43.3-.58,1.77-1,3.06-1.18,3.74-.82,2.57-5,15.33-7.7,16A1.26,1.26,0,0,1,1832,1398.31Zm4.31-62.76c-2.49,22.88-5.88,59.73-4.4,61.74.06.06.09,0,.13,0,1.56-.38,5-9.18,7-15.31.19-.68.6-2,1.18-3.76,3-9.25,10.94-33.83,8-42.7-.84-2.53-2.08-4-3.68-4.32C1841.14,1330.54,1837,1334.8,1836.26,1335.55Z"/><path class="cls-16" d="M2058,1796.79h-92.69c-19.22-35-34.84-62.43-34.84-62.43s-12.49,22.8-22.18,62.43h-312a270.22,270.22,0,0,1-4.06-65.29s-16.67,30.13-36,65.29H1451.29c27.82-52.09,79.94-146.94,91.79-159.3,14.87-15.58,101.09-75.18,162.65-94.62s96.59-.68,96.59-.68,63.23,11.4,121.7,34.58C1947,1585.88,2010.49,1703.14,2058,1796.79Z"/><path class="cls-17" d="M1761.21,1234.41s86,12.4,73.41,139.35-88.49,116.87-93.56,116.76-76.14,2.64-82.28-152.26C1658.78,1338.26,1655.91,1223.71,1761.21,1234.41Z"/><path class="cls-17" d="M1799.42,1468s-5.32,66,7.4,85.81-10.88,46.64-59.5,37.45-45.78-36.74-45.78-36.74,13.61-40.75,9.63-73.37S1799.42,1468,1799.42,1468Z"/><path class="cls-15" d="M1751.38,1280.41s40.18,42.25,58.84,63.63,20.81,62.71,20.81,62.71,31.44-38.4,18.29-83.12-44.26-131.73-123-105-81.66,144.37-72.43,202.7C1653.89,1421.33,1689.24,1292.57,1751.38,1280.41Z"/><path class="cls-17" d="M1829.61,1548s-59.63,151-95.88,177.3c0,0-47.61-154-44.29-176.61C1689.44,1548.68,1761.27,1520.54,1829.61,1548Z"/><path class="cls-15" d="M1703.59,1511.47s-106.32,94.59-78.73,153.6c23.55,50.37,107.05,19.48,93.27-33.3S1703.59,1511.47,1703.59,1511.47Z"/><path class="cls-18" d="M1717.49,1484.77s36.64,17.32,72.3-8.26c0,0-9.9,20.45-36.15,23.36S1717.49,1484.77,1717.49,1484.77Z"/><path d="M1541.13,479.84S1513.35,584.42,1507.55,608c-1.72,7.1-7.3,19.37-14.37,33.36l-.17.33a26.45,26.45,0,0,0-2.6,8.49c-1.13,8.72,2.22,15.59-3.58,25.94l-1,4.35h-55c6.42-19.07,14.56-43.33,21.09-62.87,5.47-16.49,9.79-29.61,10.94-33.41,3.4-11.35,15.87-48.08,26.46-72.47,3.7-8.49,18-16.89,30.56-23C1531.14,483.37,1541.13,479.84,1541.13,479.84Z"/><path class="cls-19" d="M1504.34,330.46s-17.53-113.42,76.4-111.32,92.68,58.17,91,113.84-37.67,51.47,2.93,128.9-35.16,77.43-35.16,77.43l-58.78-80.78Z"/><path class="cls-14" d="M1570.47,230s-63.62,10-66.13,100.44,17.16,109.66,72.82,90.83,73.24-113.43,74.5-128.07S1656.26,219.14,1570.47,230Z"/><path class="cls-9" d="M1682.19,544.46c.23,31.11-35.53,105.53-41,128.52-.65,2.67-1.35,5.14-2.05,7.47H1465.47c-.9-10.72-1.75-19.89-2.17-25.07-1.38-17-18.59-53.59-18-70.64.6-17.36,9.12-32.36,21-50.9,3.7-5.74,7.59-11.59,11.47-17.29,12.64-18.54,25.26-35.38,31.46-41.18a99.53,99.53,0,0,1,12.67-10.09l0,0c7.8-5.2,13-6.87,13-6.87l54.67-8.75s34.08,12.35,53.7,16.92C1643.36,466.55,1681.62,472.15,1682.19,544.46Z"/><path class="cls-20" d="M1522,465.25l-31.69,50L1461,561.3c.07-.25,2-7.23,5.32-27.45q.95-5.75,2-13a36.57,36.57,0,0,1,.92-4.25h0c12.52-28.86,51.23-50.62,52.65-51.34Z"/><path class="cls-14" d="M1613,380.57c-5.51,10.41-11.34,75.05-11.34,75.05s-77.81,29.41-69.84,12.77c3.61-7.55,4.67-17.34,4.74-25.79a124,124,0,0,0-.86-15.7c-.2-1.7-.36-2.68-.36-2.68S1618.46,370.15,1613,380.57Z"/><path class="cls-19" d="M1544.52,294.89S1577.16,348,1606.88,369s14.65,37.67,14.65,37.67,77.53-163.23,3.82-174.53-118.92-12.14-121,98.35C1504.34,330.46,1537.82,294.05,1544.52,294.89Z"/><path class="cls-21" d="M1580,420.24c-12,17.62-43.5,22.36-43.5,22.36h0a124,124,0,0,0-.86-15.7C1555.92,430.81,1580,420.24,1580,420.24Z"/><path class="cls-22" d="M1469.41,516.27h0s-1.69,3.5-3.07,17.58l11.46-17.29s20.47-29.35,27.48-37a116,116,0,0,1,16.65-14.31S1481.65,484.62,1469.41,516.27Z"/><path class="cls-20" d="M1624.24,560s49.94-19.59,64.72-20.73c0,0-10-80.2-59.11-71.7S1624.24,560,1624.24,560Z"/><path class="cls-14" d="M1535,458.37s-36.66,56.38-24.25,61.31,79.59-6.58,108.16-60.12C1618.89,459.56,1576.18,437.66,1535,458.37Z"/><path d="M1689,539.31c-2.55,44.21-15.09,86.14-25.44,124.62-1.49,5.57-2.94,11.09-4.29,16.52H1557.55c-.25-15.25-.2-28.69.28-39.91,5.12-122.69,44-187.21,44-187.21s12.42,4.17,48.15,14.29c24.49,6.93,33.74,38.09,37.11,57,0,0,0,.07.05.22A134,134,0,0,1,1689,539.31Z"/><path d="M1535,458.4a295.82,295.82,0,0,0-15.12,30.34c-12,27.61-27.08,71.34-28.36,119.52-.4,15.46-3.47,40.53-8.14,72.19h-20.29a322.42,322.42,0,0,0-11.17-62.87c-2.78-9.87-5.33-17.25-6.7-21.92-6.47-22,14.22-51.32,21.14-61.82S1489.86,475.2,1535,458.4Z"/><path d="M1721.35,680.45h-54.6c0-3.55-1.23-9.35-3.23-16.52-9.91-35.26-39.28-103.9-39.28-103.9S1580.31,488.24,1622,470s59.54,32.83,65.14,54.65c0,0,0,.07.05.22C1688.51,530,1713.3,624.55,1721.35,680.45Z"/><path class="cls-16" d="M506.94,1550.59c-6.95,2.63-113,44.81-134.85,155.54-1.76,8.94-18.8,104.07,45.71,171.28,72.34,75.35,211.64,73.49,266.93,10.49,12.9-14.69,19.7-31,23.51-44.66h0l-14.57-38.7c-17.78-21.46-42-26.55-54.91-29.73-31.86-7.86-55.92,6.34-74.17-9-10.1-8.5-12.1-20.74-13.9-31.67-6.1-37.23,14.91-60.15,16.44-83.11,1.15-17.16,7.15-54.77-15.25-79.3C537.7,1556.17,518.05,1551.94,506.94,1550.59Z"/><path class="cls-23" d="M465.61,2784.57c-1.24-6.82-23.25-13-34.15-3.86-5.42,4.53-9.14,13.72-6,17.87,1.14,1.51-3.53,4.17.94,4.22C441.22,2803,466.84,2791.34,465.61,2784.57Z"/><path class="cls-24" d="M442.53,2787.05l-22.64-3.2c10.49-12.63,8.55-52.85,8.55-52.85l24.08,5.38s-2.75,11-7.41,27.32C443.51,2769.27,442.8,2778,442.53,2787.05Z"/><path class="cls-25" d="M444.54,2784.26s-27.26-6.28-30.2-.88-5.24,19.89,12.05,19.42S446.08,2788.84,444.54,2784.26Z"/><path class="cls-26" d="M776.24,2810.13c-2.18-6.58-24.84-9.61-34.36,1-4.72,5.24-7.12,14.86-3.44,18.54,1.34,1.33-2.91,4.61,1.52,4C754.67,2831.77,778.4,2816.66,776.24,2810.13Z"/><path class="cls-27" d="M753.74,2815.81H730.88c8.61-14,1.06-53.52,1.06-53.52l24.59,2s-1.17,11.31-3.51,28.08C752.22,2798.08,752.73,2806.81,753.74,2815.81Z"/><path class="cls-28" d="M813,1951.19a1057,1057,0,0,1,35.46,162.25c27.77,202-31.26,208.46-20.24,432.32,3.52,71.46-61.9,236.23-67.67,239.87a70.69,70.69,0,0,1-9,.35,90,90,0,0,1-23-3.84c-10.36-1.78-47.73-103-39.07-163.16,6.13-42.59,4.35-88.3.8-179.71-.57-14.81-38.47-288.18-38.47-288.18h0c-11.53,101.19-24.79,187.16-36.28,253.82-36.93,214.15-157,343.78-163.25,345.86-1.24.49-12.5,4.58-21.71-1.49a15,15,0,0,1-5.5-6.18c-3.21-2.52.95-213.82,37.57-372.83,53.15-230.82,30-284.83,46.85-387.92C524,1893.14,813,1951.19,813,1951.19Z"/><path class="cls-16" d="M827.23,1986.06c-31.92,16.38-114.13,45.73-212.11,31.15a330.2,330.2,0,0,1-103.49-33.68c-.77-.38-1.53-.76-2.26-1.15,25.45-77,5.51-118.15-3.91-156.11-13.43-54.12-13.62-50-24.68-93-18.22-71-21.21-143.45-8.69-158.26,33.76-40,94.61-41.45,126.19-42.41,35.29-1,116.43-13.47,161.09,26.72.77.69-8.38,5.59-3.86,10.87A294,294,0,0,1,787,1615.42c9.42,16.8,18,36.39,26.53,65.56a564.55,564.55,0,0,1,20.93,114.44c.46,6.31.88,12.44,1.27,18.33C841.7,1908.59,834.16,1954.37,827.23,1986.06Z"/><path class="cls-29" d="M755.34,2812.77s-27.87-2.4-30,3.36-2.4,20.42,14.65,17.54S757.5,2817.09,755.34,2812.77Z"/><path class="cls-30" d="M699.85,1487.45c9.62-19.2,3.29-39.92,1.87-44.39-5.91-18.74-7.82-21.51-11.64-25.29l-5.37-4.94-.67-.41c-3.65-2.15-16.9-5.13-19.71-5.07-9,.17-25,33.55-31.94,83.76-.73,1.83-1.44,3.67-2.15,5.54-4.39,11.58-8,22.93-11.11,34-60.16,9.35-68.06,17-68,21.16,0,8.67,35.21,16.23,61.4,18.21,57.13,4.33,114.22-14.65,113.22-25.17-.44-4.59-12.1-9.78-60.48-12.71q.85-12,1.7-24C670.77,1506.93,692.77,1501.6,699.85,1487.45Z"/><path class="cls-31" d="M705.32,1402.17c-3,15.38-13.45,30.43-17.66,32.36a26.09,26.09,0,0,0-6.75,5,7.86,7.86,0,0,0-1.23,1.65c-5.25,9.06,8,23.46,4.16,27.23-2.77,2.73-12.44-3.51-14.22-1s6,9.32,4.1,12.13c-1.46,2.12-6.41-1-10.48,1.87-2,1.44-1.8,2.93-4.63,8a50.17,50.17,0,0,1-5.11,7.58c-7.07,8-22.78,8.41-25,4.23-.61-1.17.24-1.88.07-5.42a27.53,27.53,0,0,0-1.64-7.33c-2.12-5.79-8.93-10.94-15.47-17.88-12.1-12.84-14.26-22.21-14.84-25.35-.21-1.12-.31-2-.39-2.55-1.46-12.06,1.74-28.73,8.82-38,11.87-15.53,29.58-3.65,48.64-17.62,22-16.12,16.34-45,26.8-46.1C692,1339.77,710.91,1373.71,705.32,1402.17Z"/><path class="cls-32" d="M679,1463.73c-2.77-5.92-10.34-2.33-11.68,4.38s3.82,14.93,10.38,14.82S682.73,1471.69,679,1463.73Z"/><path class="cls-33" d="M522.67,1932.88h-.23a2,2,0,0,1-1.81-2.27c4.15-37.34-3.6-64.51-10.43-88.48-1.68-5.87-3.31-11.56-4.69-17.19-7.61-30.65-10.93-42.5-14.46-55-2.32-8.24-4.68-16.67-8.38-30.85a2.06,2.06,0,0,1,1.47-2.5,2,2,0,0,1,2.51,1.46c3.68,14.15,6,22.56,8.35,30.77,3.54,12.58,6.87,24.46,14.48,55.17,1.39,5.59,3,11.23,4.66,17.06,6.94,24.33,14.81,51.91,10.56,90.06A2,2,0,0,1,522.67,1932.88Z"/><path class="cls-34" d="M827.23,1986.06c-31.92,16.38-114.13,45.73-212.11,31.15a330.2,330.2,0,0,1-103.49-33.68c11.36-8.84,25.37-23.65,48.53-48.84,28.05-30.46,60.93-19.09,80.26-7.61A45.64,45.64,0,0,0,709.27,1889a203,203,0,0,0-1-25.46c-6.62-69.31,89.4-75.2,89.4-75.2,13.55-7,26.42,4.32,38.13,25.41C841.7,1908.59,834.16,1954.37,827.23,1986.06Z"/><path class="cls-35" d="M1162.93,1677.29c-3.87.37-8.54,4.28-11.83,6.15-4.67,2.65-9.37,5.25-14.14,7.73-9.19,4.79-18.93,8.35-29.44,8.15a23.81,23.81,0,0,1,1.4-4.44c1.78-4.16,4.13-7.76,2.73-9-2-1.82-10.84,1.93-19,9.73a52.08,52.08,0,0,0-9,11.3c-4.16,7.08-3.46,10.95-6.94,16.36-5.17,4.63-9,5.65-9,5.65v1.48l.59,1.82a48,48,0,0,1-13.94,7c7.2,1.93,14.23,3.9,21.39,5.87l5,8.3s27.13-5.68,43.5-15.61c7.66-4.66,10.29-10.42,10.94-15.2a20.41,20.41,0,0,0-.43-7.65c-.34-1.25-.64-2-.64-2s22.35-9.28,31.18-29.36C1166.56,1680.48,1166.69,1676.93,1162.93,1677.29Z"/><path class="cls-16" d="M1068.24,1720.56c12.76,8.93,19.6,21.06,23.15,28.8-9.38,22-30.66,62.92-74.71,93.06-72.22,49.41-178.11,51.07-251.87-5.28C676.69,1769.82,662,1640.71,699,1585.43c4.27-6.37,18.27-27.29,40-29.69,13.73-1.52,32.43,4.14,62,38.72,61.54,72,39.8,117,76.16,138.12C931.63,1764.19,1012.64,1681.66,1068.24,1720.56Z"/></g></g></svg>