<svg id="Layer_1" data-name="Layer 1" xmlns="http://www.w3.org/2000/svg" viewBox="0 0 41.53 40.32"><defs><style>.cls-1{fill:#fff;}</style></defs><path class="cls-1" d="M29.25,10.12h0A1.84,1.84,0,0,1,31.11,12a1.86,1.86,0,1,1-1.86-1.87Z"/><path class="cls-1" d="M36.24,12.51c.23,2.44.38,14-.34,16.66a7.93,7.93,0,0,1-6.84,6.2,78.35,78.35,0,0,1-8.55.34,53,53,0,0,1-8.61-.45A7.79,7.79,0,0,1,5.73,28.5c-.41-2.61-.46-14.76.3-17.39a7.88,7.88,0,0,1,6.75-6,59.85,59.85,0,0,1,7.76-.35c2.89,0,5.81.08,7.57.17a8.52,8.52,0,0,1,5.65,2.32A8.14,8.14,0,0,1,36.24,12.51ZM33.26,28a112.38,112.38,0,0,0,.19-15.22,5.21,5.21,0,0,0-4.64-4.93,68.93,68.93,0,0,0-7.75-.3c-3.08,0-6.15.09-7.51.23a5.31,5.31,0,0,0-5,4.67,105.17,105.17,0,0,0-.1,15.64,5,5,0,0,0,3.82,4.38,48.57,48.57,0,0,0,8.33.46c3.25,0,6.44-.11,7.64-.24a5.3,5.3,0,0,0,5-4.69"/><path class="cls-1" d="M21,12.29a7.86,7.86,0,0,1,7.87,8,8,8,0,0,1-8,7.94A7.86,7.86,0,0,1,13,20.23,8,8,0,0,1,21,12.29Zm-.12,13.08a5.18,5.18,0,0,0,5.18-5.09,5.08,5.08,0,0,0-5-5.19h0a5.18,5.18,0,0,0-5.18,5.09,5.1,5.1,0,0,0,5.05,5.19h0"/></svg>