<svg xmlns="http://www.w3.org/2000/svg" xmlns:xlink="http://www.w3.org/1999/xlink" viewBox="0 0 2959.75 2911.62"><defs><style>.cls-1{isolation:isolate;}.cls-2{fill:url(#linear-gradient);}.cls-3,.cls-9{fill:#d8dee8;}.cls-4{fill:url(#linear-gradient-2);}.cls-5{fill:#efefef;}.cls-6{fill:#97a6b7;}.cls-7{fill:url(#linear-gradient-3);}.cls-11,.cls-12,.cls-19,.cls-41,.cls-43,.cls-8{fill:#fff;}.cls-22,.cls-26,.cls-31,.cls-36,.cls-37,.cls-9{opacity:0.3;}.cls-22,.cls-26,.cls-31,.cls-36,.cls-37,.cls-39,.cls-9{mix-blend-mode:multiply;}.cls-10{fill:#293a7d;}.cls-11{opacity:0.6;}.cls-11,.cls-12,.cls-19{mix-blend-mode:soft-light;}.cls-12{opacity:0.36;}.cls-13{fill:url(#linear-gradient-4);}.cls-14,.cls-20{fill:#151563;}.cls-14{opacity:0.5;}.cls-15{fill:url(#linear-gradient-5);}.cls-16{fill:url(#linear-gradient-6);}.cls-17{fill:url(#linear-gradient-7);}.cls-18{fill:url(#linear-gradient-8);}.cls-21{fill:#a02f07;}.cls-23{fill:url(#linear-gradient-9);}.cls-24{fill:#4d4d4d;}.cls-25,.cls-26{fill:#666;}.cls-27{fill:#ebaa57;}.cls-28{fill:#a02f06;}.cls-29{fill:url(#linear-gradient-10);}.cls-30{fill:url(#linear-gradient-11);}.cls-31{fill:url(#linear-gradient-12);}.cls-32{fill:url(#linear-gradient-13);}.cls-33{fill:url(#linear-gradient-14);}.cls-34{fill:#603813;}.cls-35{fill:#754c24;}.cls-36{fill:url(#linear-gradient-15);}.cls-37{fill:#999;}.cls-38{fill:url(#linear-gradient-16);}.cls-39{opacity:0.2;}.cls-40{fill:url(#linear-gradient-17);}.cls-41{font-size:148px;}.cls-41,.cls-43{font-family:SpaceMono-Bold, Space Mono;font-weight:700;}.cls-42{fill:url(#linear-gradient-18);}.cls-43{font-size:98px;}</style><linearGradient id="linear-gradient" x1="-626.11" y1="2930.28" x2="-542.07" y2="2930.28" gradientTransform="matrix(1, 0.03, -0.03, 1, 3098.69, -20.21)" gradientUnits="userSpaceOnUse"><stop offset="0" stop-color="#311944"/><stop offset="1" stop-color="#893976"/></linearGradient><linearGradient id="linear-gradient-2" x1="-33.18" y1="3212.67" x2="56.11" y2="3212.67" gradientTransform="matrix(0.96, 0.27, -0.27, 0.96, 2999.02, -221.19)" xlink:href="#linear-gradient"/><linearGradient id="linear-gradient-3" x1="1491.94" y1="3224.81" x2="1498.74" y2="2647.05" gradientUnits="userSpaceOnUse"><stop offset="0.49" stop-color="#ebeff2"/><stop offset="1" stop-color="#fff"/></linearGradient><linearGradient id="linear-gradient-4" x1="1373.03" y1="759.19" x2="1573.9" y2="1983.55" gradientUnits="userSpaceOnUse"><stop offset="0" stop-color="#b3b3b3"/><stop offset="1" stop-color="#4d4d4d"/></linearGradient><linearGradient id="linear-gradient-5" x1="1377.31" y1="759.93" x2="1561.1" y2="1880.2" xlink:href="#linear-gradient-4"/><linearGradient id="linear-gradient-6" x1="1520.13" y1="998.32" x2="1663.69" y2="1873.36" gradientUnits="userSpaceOnUse"><stop offset="0" stop-color="#b3b3b3"/><stop offset="1" stop-color="gray"/></linearGradient><linearGradient id="linear-gradient-7" x1="1328.52" y1="834.07" x2="1495.36" y2="1851.01" xlink:href="#linear-gradient-4"/><linearGradient id="linear-gradient-8" x1="1137.04" y1="790.29" x2="1321.93" y2="1917.26" xlink:href="#linear-gradient-4"/><linearGradient id="linear-gradient-9" x1="1967.99" y1="2611.99" x2="2074.5" y2="2106.11" gradientTransform="matrix(-1, 0, 0, 1, 4541.81, 0)" gradientUnits="userSpaceOnUse"><stop offset="0" stop-color="#ff9085"/><stop offset="1" stop-color="#fb6fbb"/></linearGradient><linearGradient id="linear-gradient-10" x1="-2518.26" y1="1018.6" x2="-2184.21" y2="1018.6" gradientTransform="translate(3936.97)" gradientUnits="userSpaceOnUse"><stop offset="0" stop-color="#aa80f9"/><stop offset="1" stop-color="#6165d7"/></linearGradient><linearGradient id="linear-gradient-11" x1="4441.12" y1="407.5" x2="4455.56" y2="667.41" gradientTransform="matrix(-0.96, 0.29, 0.29, 0.96, 5834.73, -297.41)" gradientUnits="userSpaceOnUse"><stop offset="0" stop-color="#e38ddd"/><stop offset="1" stop-color="#9571f6"/></linearGradient><linearGradient id="linear-gradient-12" x1="-2361.24" y1="1031.17" x2="-2027.18" y2="1031.17" xlink:href="#linear-gradient-10"/><linearGradient id="linear-gradient-13" x1="1724.08" y1="1467.5" x2="1745.8" y2="1467.5" gradientUnits="userSpaceOnUse"><stop offset="0" stop-color="#311944"/><stop offset="1" stop-color="#a03976"/></linearGradient><linearGradient id="linear-gradient-14" x1="-2339.89" y1="811.19" x2="-2040.37" y2="1175.12" xlink:href="#linear-gradient-10"/><linearGradient id="linear-gradient-15" x1="956.4" y1="833.73" x2="1278.12" y2="544.48" gradientTransform="matrix(-1, 0, 0, 1, 3059.23, 0)" gradientUnits="userSpaceOnUse"><stop offset="0" stop-color="#ffc444"/><stop offset="1" stop-color="#f36f56"/></linearGradient><linearGradient id="linear-gradient-16" x1="-2333.8" y1="152.01" x2="-2060.51" y2="658.89" gradientTransform="matrix(-1, 0, 0, 1, -1033.12, 0)" gradientUnits="userSpaceOnUse"><stop offset="0" stop-color="#293a7d"/><stop offset="0.84" stop-color="blue"/></linearGradient><linearGradient id="linear-gradient-17" x1="3075.07" y1="581.17" x2="3080" y2="581.17" gradientUnits="userSpaceOnUse"><stop offset="0" stop-color="#293a7d"/><stop offset="0.74" stop-color="blue"/></linearGradient><linearGradient id="linear-gradient-18" x1="-2292.88" y1="737.5" x2="-2104.72" y2="1086.48" gradientTransform="matrix(1, -0.04, -0.04, -1, 3439.42, 1655.39)" xlink:href="#linear-gradient-17"/></defs><g class="cls-1"><g id="Illustration"><path class="cls-2" d="M2465.81,2873.61c4.6,3.74,5.45,13.07,6,19.17.25,2.72.37,4.08.06,5-2.22,7-15.83,7.75-37.17,9.93-33.73,3.45-43.77,6.1-46.41,1.09-2.47-4.71,3.51-12.41,4.19-13.26,3.62-4.57,8.07-6.23,16.67-9.06,15.91-5.23,26.67-8.1,29.92-9C2459.4,2872.13,2462.8,2871.16,2465.81,2873.61Z"/><path class="cls-3" d="M2445.76,2842.8l-3.38,38.44c1,1.85,12.38,7.42,21.46,2.65l8.67-37.79Z"/><path class="cls-4" d="M2198.32,2868.68c5.51,6.08,6.76,17.28,2,22.8s-11.79,1.35-31.86,1.95c-21.51.65-27.13,5.72-41.74,1.69-5.91-1.63-16.33-5.59-16.14-9.8.14-3,5.45-4.5,23.18-10.44,25.17-8.43,25.06-8.89,30.41-9.78C2177.56,2862.88,2191,2860.64,2198.32,2868.68Z"/><path class="cls-3" d="M2184.54,2833.6l-10.79,35.88c.82,1.92,11.78,8.34,21.19,4.28l16-34.83Z"/><path class="cls-5" d="M1434.42,0C722.17-21.63,105.22,509.84,12,1207.19c-101.92,762.46,459,1448.5,1149.18,1558.37,858.48,136.67,1691.14-654,1616.38-1511.72C2721.24,607.61,2158.43,22,1434.42,0Z"/><path class="cls-6" d="M1739.88,2728.6a112,112,0,0,1-74.25-84.31l-55.19-273.15-472.11,16.77-58.1,284.56c-8.14,39.85,24.44,79.83,62,94.51l197.52,77.28A256.79,256.79,0,0,0,1455.17,2861l417.43-35.71a25.9,25.9,0,0,0,23.41-22.94c1.42-12.31,10-26.12-1.66-30Z"/><path class="cls-7" d="M1744.55,2712a111,111,0,0,1-74.18-83.25L1615.24,2359l-460.6,16.57-58,281a82.2,82.2,0,0,0,50.85,93.3l197.32,76.31a259.1,259.1,0,0,0,115.36,16.53l417-35.26a25.73,25.73,0,0,0,5.85-50.08Z"/><path class="cls-6" d="M173.65,2552.69c-51.19,3-93.08-30.16-93.08-74.05v-1582c0-43.89,41.89-77.79,93.08-75.57l2377.9,164.62c37.59,1.63,57.75-28.71,57.75,8.61V2339.79c0,37.33-30.43,69.51-68,71.75Z"/><path class="cls-8" d="M194.93,2552.69c-51.2,3-93.08-30.16-93.08-74.05v-1582c0-43.89,41.88-77.79,93.08-75.57L2562.56,923.69c37.59,1.63,68,33.32,68,70.64V2339.79c0,37.33-30.43,69.51-68,71.75Z"/><path class="cls-9" d="M2562.56,955.35,194.93,858c-27.37-1.13-49.62,17-49.62,40.4v1577.9c0,23.44,22.25,41.16,49.62,39.59l2367.63-136c20.15-1.16,36.44-18.33,36.44-38.36V993.11C2599,973.09,2582.71,956.18,2562.56,955.35Z"/><path class="cls-10" d="M2545,2266,220.59,2380.77c-24.4,1.2-44.22-14.92-44.22-36V919.07c0-21.1,19.82-37.47,44.22-36.57L2545,968.78a34.47,34.47,0,0,1,33,34.15V2231.48A35,35,0,0,1,2545,2266Z"/><polygon class="cls-11" points="800.44 1033.07 269.61 1017.45 269.61 966.84 800.44 984.01 800.44 1033.07"/><polygon class="cls-12" points="1050.43 1026.42 927.8 1022.71 927.8 988.13 1050.43 992.1 1050.43 1026.42"/><polygon class="cls-12" points="1050.43 1074.11 927.8 1070.75 927.8 1036.17 1050.43 1039.78 1050.43 1074.11"/><polygon class="cls-13" points="1661.53 1090.83 1185.79 1077.81 1185.79 1043.77 1661.53 1057.78 1661.53 1090.83"/><polygon class="cls-14" points="1739.54 1138.66 1268.53 1127.13 1268.53 1093.27 1739.54 1105.78 1739.54 1138.66"/><polygon class="cls-14" points="1739.54 1184.36 1268.53 1174.19 1268.53 1140.32 1739.54 1151.47 1739.54 1184.36"/><polygon class="cls-11" points="1739.54 1230.06 1268.53 1221.25 1268.53 1187.38 1739.54 1197.17 1739.54 1230.06"/><polygon class="cls-12" points="1050.43 1121.8 927.8 1118.79 927.8 1084.21 1050.43 1087.47 1050.43 1121.8"/><polygon class="cls-12" points="1050.43 1169.48 927.8 1166.84 927.8 1132.26 1050.43 1135.16 1050.43 1169.48"/><polygon class="cls-12" points="1050.43 1217.17 927.8 1214.88 927.8 1180.3 1050.43 1182.85 1050.43 1217.17"/><polygon class="cls-12" points="1050.43 1264.86 927.8 1262.92 927.8 1228.34 1050.43 1230.54 1050.43 1264.86"/><polygon class="cls-11" points="1379.03 1270.05 1077.19 1265.28 1077.19 1231.02 1379.03 1236.41 1379.03 1270.05"/><polygon class="cls-12" points="1050.43 1312.55 927.8 1310.96 927.8 1276.39 1050.43 1278.22 1050.43 1312.55"/><polygon class="cls-12" points="1050.43 1360.24 927.8 1359.01 927.8 1324.43 1050.43 1325.91 1050.43 1360.24"/><polygon class="cls-12" points="1050.43 1407.92 927.8 1407.05 927.8 1372.47 1050.43 1373.6 1050.43 1407.92"/><polygon class="cls-14" points="1520.45 1318.62 1185.79 1314.3 1185.79 1280.26 1520.45 1285.27 1520.45 1318.62"/><polygon class="cls-11" points="1694.31 1366.69 1268.53 1362.42 1268.53 1328.55 1694.31 1333.71 1694.31 1366.69"/><polygon class="cls-15" points="1694.31 1412.52 1268.53 1409.48 1268.53 1375.61 1694.31 1379.53 1694.31 1412.52"/><polygon class="cls-12" points="1050.43 1455.61 927.8 1455.09 927.8 1420.52 1050.43 1421.29 1050.43 1455.61"/><polygon class="cls-12" points="1050.43 1503.3 927.8 1503.13 927.8 1468.56 1050.43 1468.98 1050.43 1503.3"/><polygon class="cls-12" points="1050.43 1550.99 927.8 1551.18 927.8 1516.6 1050.43 1516.67 1050.43 1550.99"/><polygon class="cls-12" points="1050.43 1598.68 927.8 1599.22 927.8 1564.64 1050.43 1564.36 1050.43 1598.68"/><polygon class="cls-12" points="1050.43 1646.37 927.8 1647.26 927.8 1612.69 1050.43 1612.04 1050.43 1646.37"/><polygon class="cls-12" points="1050.43 1694.05 927.8 1695.31 927.8 1660.73 1050.43 1659.73 1050.43 1694.05"/><polygon class="cls-12" points="1050.43 1741.74 927.8 1743.35 927.8 1708.77 1050.43 1707.42 1050.43 1741.74"/><polygon class="cls-12" points="1050.43 1789.43 927.8 1791.39 927.8 1756.81 1050.43 1755.11 1050.43 1789.43"/><polygon class="cls-12" points="1050.43 1837.12 927.8 1839.43 927.8 1804.86 1050.43 1802.8 1050.43 1837.12"/><polygon class="cls-12" points="1050.43 1884.81 927.8 1887.48 927.8 1852.9 1050.43 1850.48 1050.43 1884.81"/><polygon class="cls-12" points="1050.43 1932.49 927.8 1935.52 927.8 1900.94 1050.43 1898.17 1050.43 1932.49"/><polygon class="cls-12" points="1050.43 1980.18 927.8 1983.56 927.8 1948.98 1050.43 1945.86 1050.43 1980.18"/><polygon class="cls-12" points="1050.43 2027.87 927.8 2031.61 927.8 1997.03 1050.43 1993.55 1050.43 2027.87"/><polygon class="cls-12" points="1050.43 2075.56 927.8 2079.65 927.8 2045.07 1050.43 2041.24 1050.43 2075.56"/><polygon class="cls-12" points="1050.43 2123.25 927.8 2127.69 927.8 2093.11 1050.43 2088.93 1050.43 2123.25"/><polygon class="cls-12" points="1050.43 2170.94 927.8 2175.73 927.8 2141.16 1050.43 2136.61 1050.43 2170.94"/><polygon class="cls-12" points="1050.43 2218.63 927.8 2223.78 927.8 2189.2 1050.43 2184.3 1050.43 2218.63"/><polygon class="cls-12" points="1050.43 2266.31 927.8 2271.82 927.8 2237.24 1050.43 2231.99 1050.43 2266.31"/><polygon class="cls-14" points="1410.79 1037.32 1076.35 1027.2 1076.35 992.93 1410.79 1003.75 1410.79 1037.32"/><polygon class="cls-11" points="1661.53 2009.26 1185.79 2023.75 1185.79 1989.71 1661.53 1976.21 1661.53 2009.26"/><polygon class="cls-14" points="1739.54 2052.58 1268.53 2068.29 1268.53 2034.42 1739.54 2019.69 1739.54 2052.58"/><polygon class="cls-14" points="1739.54 2098.28 1268.53 2115.34 1268.53 2081.48 1739.54 2065.39 1739.54 2098.28"/><polygon class="cls-14" points="1942.51 2136.03 1483.7 2153.98 1483.7 2120.56 1942.51 2103.57 1942.51 2136.03"/><polygon class="cls-16" points="1942.51 2181.14 1483.7 2200.42 1483.7 2167 1942.51 2148.68 1942.51 2181.14"/><polygon class="cls-11" points="1942.51 2226.25 1483.7 2246.86 1483.7 2213.43 1942.51 2193.78 1942.51 2226.25"/><polygon class="cls-14" points="1410.79 1970.25 1076.35 1979.47 1076.35 1945.2 1410.79 1936.68 1410.79 1970.25"/><polygon class="cls-14" points="1661.53 1504.13 1185.79 1503.48 1185.79 1469.44 1661.53 1471.08 1661.53 1504.13"/><polygon class="cls-11" points="1739.54 1549.93 1268.53 1550.65 1268.53 1516.78 1739.54 1517.04 1739.54 1549.93"/><polygon class="cls-14" points="1739.54 1641.32 1268.53 1644.77 1268.53 1610.9 1739.54 1608.43 1739.54 1641.32"/><polygon class="cls-14" points="1379.03 1690.7 1077.19 1693.78 1077.19 1659.51 1379.03 1657.06 1379.03 1690.7"/><polygon class="cls-11" points="1520.45 1735.58 1185.79 1739.97 1185.79 1705.93 1520.45 1702.24 1520.45 1735.58"/><polygon class="cls-17" points="1694.31 1779.13 1268.53 1785.94 1268.53 1752.07 1694.31 1746.15 1694.31 1779.13"/><polygon class="cls-14" points="1694.31 1824.96 1268.53 1833 1268.53 1799.13 1694.31 1791.97 1694.31 1824.96"/><polygon class="cls-14" points="1788.69 1868.73 1368.05 1877.89 1368.05 1844.23 1788.69 1835.94 1788.69 1868.73"/><polygon class="cls-14" points="1788.69 1914.28 1368.05 1924.66 1368.05 1891 1788.69 1881.5 1788.69 1914.28"/><polygon class="cls-18" points="1410.79 1457.14 1076.35 1455.72 1076.35 1421.45 1410.79 1423.57 1410.79 1457.14"/><polygon class="cls-19" points="800.44 1109.72 496.6 1102.17 496.6 1052.23 800.44 1060.66 800.44 1109.72"/><polygon class="cls-11" points="418.01 1100.22 475.24 1101.64 475.24 1051.63 418.01 1050.04 418.01 1100.22"/><polygon class="cls-11" points="800.44 1180.24 496.6 1173.97 496.6 1124.02 800.44 1131.18 800.44 1180.24"/><polygon class="cls-11" points="418.01 1172.35 475.24 1173.53 475.24 1123.52 418.01 1122.17 418.01 1172.35"/><polygon class="cls-11" points="800.44 1250.76 496.6 1245.77 496.6 1195.82 800.44 1201.7 800.44 1250.76"/><polygon class="cls-11" points="418.01 1244.48 475.24 1245.42 475.24 1195.41 418.01 1194.3 418.01 1244.48"/><polygon class="cls-19" points="800.44 1751.31 269.61 1758.47 269.61 1707.86 800.44 1702.26 800.44 1751.31"/><polygon class="cls-11" points="800.44 1827.96 496.6 1833.45 496.6 1783.51 800.44 1778.91 800.44 1827.96"/><polygon class="cls-11" points="418.01 1834.87 475.24 1833.84 475.24 1783.83 418.01 1784.69 418.01 1834.87"/><polygon class="cls-11" points="800.44 1898.48 496.6 1905.25 496.6 1855.3 800.44 1849.43 800.44 1898.48"/><polygon class="cls-11" points="418.01 1907 475.24 1905.73 475.24 1855.72 418.01 1856.82 418.01 1907"/><polygon class="cls-11" points="800.44 1969 496.6 1977.05 496.6 1927.1 800.44 1919.95 800.44 1969"/><polygon class="cls-11" points="418.01 1979.13 475.24 1977.61 475.24 1927.61 418.01 1928.95 418.01 1979.13"/><polygon class="cls-19" points="800.44 1321.75 269.61 1315.29 269.61 1264.68 800.44 1272.69 800.44 1321.75"/><polygon class="cls-11" points="800.44 1398.4 496.6 1396.1 496.6 1346.15 800.44 1349.35 800.44 1398.4"/><polygon class="cls-11" points="418.01 1395.5 475.24 1395.93 475.24 1345.92 418.01 1345.32 418.01 1395.5"/><polygon class="cls-11" points="800.44 1468.92 496.6 1467.89 496.6 1417.95 800.44 1419.87 800.44 1468.92"/><polygon class="cls-11" points="418.01 1467.63 475.24 1467.82 475.24 1417.81 418.01 1417.45 418.01 1467.63"/><polygon class="cls-11" points="800.44 1610.87 496.6 1612.42 496.6 1562.47 800.44 1561.82 800.44 1610.87"/><polygon class="cls-11" points="418.01 1612.82 475.24 1612.53 475.24 1562.52 418.01 1562.64 418.01 1612.82"/><polygon class="cls-11" points="800.44 1681.39 496.6 1684.22 496.6 1634.27 800.44 1632.34 800.44 1681.39"/><polygon class="cls-11" points="418.01 1684.95 475.24 1684.42 475.24 1634.41 418.01 1634.78 418.01 1684.95"/><polygon class="cls-11" points="800.44 1539.44 496.6 1539.69 496.6 1489.74 800.44 1490.38 800.44 1539.44"/><polygon class="cls-11" points="418.01 1539.76 475.24 1539.71 475.24 1489.7 418.01 1489.58 418.01 1539.76"/><polygon class="cls-19" points="800.44 2039.5 269.61 2055.79 269.61 2005.18 800.44 1990.44 800.44 2039.5"/><polygon class="cls-11" points="800.44 2116.15 496.6 2126.86 496.6 2076.92 800.44 2067.09 800.44 2116.15"/><polygon class="cls-11" points="418.01 2129.64 475.24 2127.62 475.24 2077.61 418.01 2079.46 418.01 2129.64"/><polygon class="cls-11" points="800.44 2186.67 496.6 2198.66 496.6 2148.72 800.44 2137.61 800.44 2186.67"/><polygon class="cls-11" points="418.01 2201.76 475.24 2199.51 475.24 2149.5 418.01 2151.59 418.01 2201.76"/><polygon class="cls-11" points="800.44 2257.18 496.6 2270.46 496.6 2220.51 800.44 2208.13 800.44 2257.18"/><polygon class="cls-11" points="418.01 2273.89 475.24 2271.39 475.24 2221.38 418.01 2223.72 418.01 2273.89"/><polygon class="cls-11" points="864.95 2254.61 853.26 2255.12 853.26 985.72 864.95 986.1 864.95 2254.61"/><path class="cls-11" d="M2315.39,2313.62c-515.4,10.78-631.3,84.37-777.75-3.81-201.24-121.16-109.59-336.69-305.66-449.75-246.5-142.14-530.7,118.18-659.35-8.73-128.12-126.39,113.9-423.84-26.2-755.42-56.22-133.06-152-219.48-218.09-269L194.93,821.1c-51.2-2.22-93.08,31.68-93.08,75.57v1582c0,43.89,41.88,77.1,93.08,74.05l2367.63-141.15c37.59-2.24,68-34.42,68-71.75v-23.92C2559.62,2313.35,2449.7,2310.82,2315.39,2313.62Z"/><path class="cls-20" d="M2172.68,1867.31c-24.42-26.07,43.17-124,79.35-166.91,31.6-37.48,64.08-76,104-71.14,35,4.29,69.1,41.22,71.14,76.62C2432.63,1801.1,2207.39,1904.37,2172.68,1867.31Z"/><path class="cls-21" d="M2280.38,2047.73a3359.36,3359.36,0,0,1-29.52,403.49A3360.88,3360.88,0,0,1,2174.17,2844l41.29,11.11c34.91-32.56,79-83.81,100.22-156.24,13.19-44.95,8.79-68,17.16-123.34,13.32-88,40.31-134.16,68.2-205.15,25.06-63.79,54.69-157.41,70.57-282.56Z"/><path class="cls-21" d="M2404.62,2036.22q12.63,230.06,20.6,468.59,5.91,179,8.75,353.35l42.18,5.2a491.12,491.12,0,0,0,44-113.52c15-60.19,11.53-95.93,18.12-158.32,7.38-70,18.11-85.21,37.12-173.48,38.58-179.13,57.86-268.69,14.83-324.41C2576.24,2075.54,2532.45,2030.17,2404.62,2036.22Z"/><path class="cls-20" d="M2609.51,1650.76a654.93,654.93,0,0,0-140.27-23.42c-84.28-4.77-126.43-7.15-156.29,12.92-69,46.36-15.57,153.35-43.81,418.57-4,37.87-4.93,76-7.85,114-4.84,62.88-5.94,66.29-1.56,72.66,27.43,40,129.8-20.31,279.83,3.51,83.94,13.33,122,44,145,21.89,26.83-25.83,3.82-95.3-16-155.11-22.74-68.65-36.78-69.54-49.68-121.24-13.49-54-5.33-81.86-3.23-167.08A1511,1511,0,0,0,2609.51,1650.76Z"/><g class="cls-22"><path class="cls-23" d="M2405.49,2148.68c39.21-3.07,64.65,19.1,98.5,1.82,46.41-23.69,61.33-97.4,58.37-149.57-4.49-79.27-49.76-100.17-42-151.41,4.22-27.7,24-64.49,95-102.08.95,31.63.77,58.6.24,80-2.1,85.22-10.26,113,3.23,167.08,12.9,51.7,26.94,52.59,49.68,121.24,19.8,59.81,42.81,129.28,16,155.11-23,22.15-61.07-8.56-145-21.89-129.28-20.52-223.11,21.33-264.16,7.76C2325,2174.78,2370,2151.46,2405.49,2148.68Z"/></g><path class="cls-20" d="M2556,1656.2c28-23,84.32,3,99.37,10,83.94,38.83,159.31,143.47,140.64,254-2.8,16.59-15.79,94.15-81.47,131.74-59.27,33.91-139.29,25.19-203.41-22.84l-26.29-23.33-25.86-28a207.65,207.65,0,0,1,68.91-38c42.63-13.76,73.67,10.93,93.45-7.84,13.66-13,13.69-35.83,10.32-49.69-6.8-27.94-31.43-35.8-52-55.64C2531.38,1780.13,2522.49,1683.76,2556,1656.2Z"/><polygon class="cls-24" points="2153.55 2017.19 2528.93 2011.58 2429.11 2059.76 2152.59 2041.66 2153.55 2017.19"/><path class="cls-24" d="M2542.18,2021.56h0a16.71,16.71,0,0,1-11,15.7l-119.95,47-.54-32.6,118.24-40.11A10.39,10.39,0,0,1,2542.18,2021.56Z"/><path class="cls-8" d="M2484.38,1999.35c2.3-.52-11.23-27.47-21.85-24.36s-62.56,33.21-67.28,45.61l-4.72,12.39s22.66,1.77,36.71-3S2465.64,2003.53,2484.38,1999.35Z"/><path class="cls-25" d="M2400.73,1823l26.46,240.92c.91,8.31-10.73,20.7-19.08,20.3l-388.17-23.83a13.61,13.61,0,0,1-12.77-11.29l-48.72-232.69c-1.45-8.46,13.77-17.21,22.36-17l406.77,11.44A13.6,13.6,0,0,1,2400.73,1823Z"/><path class="cls-25" d="M2391.86,1830l26.46,240.93a13.62,13.62,0,0,1-14.17,15.08l-393.08-18.61a13.62,13.62,0,0,1-12.77-11.29l-40.16-233.75a13.61,13.61,0,0,1,13.79-15.91l406.78,11.43A13.62,13.62,0,0,1,2391.86,1830Z"/><path class="cls-26" d="M2161,2010.91c34.32-14.54,22.21-42.28,62.74-76.85,53.47-45.6,108-25.83,127-61.17,5.94-11,8.77-28.14-1.57-55.86l29.45.82a13.62,13.62,0,0,1,13.15,12.12l26.46,240.93a13.62,13.62,0,0,1-14.17,15.08l-393.08-18.61a13.62,13.62,0,0,1-12.77-11.29l-5.54-32.26a148.27,148.27,0,0,1,42.8-16C2093.23,1996.08,2121.53,2027.66,2161,2010.91Z"/><path class="cls-8" d="M1986.3,2033.67a3.07,3.07,0,0,1,2.76-4c8.31-.43,27.58-.6,38.21,5.91,13.82,8.47,31.69,23.91,16.64,31.71l-14.05,7.27a3,3,0,0,1-2,.29c-5-1.1-26-5.76-28.31-6.92C1997.41,2066.84,1989.4,2043.06,1986.3,2033.67Z"/><path class="cls-27" d="M2463,1535.25a291.87,291.87,0,0,0,5.21,58.38c3,15.54,5.2,19.56,8,22.82,4.18,4.91,10.51,9,46.32,17.9,19.48,4.83,22,4.7,22.42,6.63,2.1,9.44-51,41.58-105.92,33.84-33.59-4.75-64.16-23.91-62.28-34s35.44-4.69,45.44-23c7-12.75-.84-30.85-10.06-45.84C2421,1555.26,2454,1552,2463,1535.25Z"/><path class="cls-28" d="M2400.59,1545.13c-7.92-10.53-8.41-28.92.72-40.54,7.86-10,20.23-11.43,27.64-12.28,21.46-2.48,48.54,6.48,58,26.23,5.58,11.71-6.49,36-8.38,40.4-2.14,5-6,6.64-9.61,10.38-5,5.19-12.77,13.43-25.49,27.22a89.14,89.14,0,0,0-4.87-14.57,78.17,78.17,0,0,0-10.2-17.11C2417.18,1551.22,2408.11,1555.11,2400.59,1545.13Z"/><path class="cls-27" d="M2461.57,1584.94s-14.11,23.15-42.2,21.32c-25.15-1.64-28.83-58-12.77-70,5.36-4,16.09-5.65,24.82-3.2,5.16,1.44,6.9,3.58,15.37,5.78,7.81,2,10,1.16,12.38,3.14,2.95,2.49,5.11,8.57.18,25.06,4.8-4.86,10.56-6.72,14.64-4.79a8.51,8.51,0,0,1,3.35,3.26C2480.86,1571.94,2475,1580.17,2461.57,1584.94Z"/><path class="cls-28" d="M2460.3,1538.6c-1.21.91,2.5,5.43,2.78,11.84.53,12.43-12,27.35-24.89,28.62-7.59.75-9.67-3.83-22.22-5.15a57.15,57.15,0,0,0-18.3,1c-4,13.64-.24,27.23,8.88,33.54,9.81,6.79,22.34,2.67,27.58,1,3.51-1.16,14.74-4.82,20.61-15.13,6.12-10.73.12-17.2,7.14-24.46,3.54-3.67,8.19-5.25,12.71-12.34a34.66,34.66,0,0,0,2.55-4.78C2470.65,1545.86,2462.06,1537.29,2460.3,1538.6Z"/><path class="cls-27" d="M2406.8,1580s5.43,2.83,14.81,2.31c.46,0,1,.1,1,.34.22.89-5.8,4.88-11.35,3.32-3.94-1.1-7-4.83-6.48-5.78C2405,1579.81,2405.92,1579.86,2406.8,1580Z"/><path class="cls-10" d="M1858.85,516.39c-21.69-6.34-50.68,33.49-74.78,66.6-36,49.53-78.17,107.4-66.82,176.89,11.16,68.36,69.77,121.61,86.48,114,14.28-6.51-13.18-52.49,7.86-114,17-49.63,45.11-49.65,64-98.3C1899,601.2,1885.53,524.18,1858.85,516.39Z"/><path class="cls-29" d="M1848.12,831.29c-111.71,27.13-185.3,70.66-228.27,101.46-23.29,16.69-34,27.1-39.86,42.27-33.09,86.46,136.93,217.19,155,230.89l23.74-55.36c-17.56-96.43-46.81-126.68-71.29-135.68-6.84-2.51-18.33-5.21-18.11-8.45.53-7.66,65.1,3.26,126.81-19.32,61.54-22.52,123.36-79.49,112.32-117.16C1906.49,863.07,1898.05,843.19,1848.12,831.29Z"/><path class="cls-30" d="M1739.79,1463.28s10.4,3.71,10.44,11.93-10.53,44.45-22,57.32-12.51-6.33-11.8-18.7,3.72-40.06,6.56-45.41S1739.79,1463.28,1739.79,1463.28Z"/><path class="cls-31" d="M1706.41,957.71c-20.3-.4-67.86-4.19-80.52,19.32-10.56,19.61,7.94,49.35,19.32,67.63,31,49.72,61,54.81,82.13,85.35,8.19,11.83,15.61,28.34,18,51.94q6.74-15.71,13.46-31.41c-17.56-96.42-46.81-126.67-71.29-135.67-6.84-2.51-18.33-5.21-18.11-8.45.53-7.66,65.1,3.26,126.81-19.32,56.1-20.53,112.24-69.64,113.4-106.71C1820.76,944.1,1753.91,958.64,1706.41,957.71Z"/><path class="cls-32" d="M1745.8,1428.34c-.61,12.67-1.69,23.27-2.66,31.14-2.14,17.41-4.11,24.29-6.82,30.57-2.35,5.46-8.24,17.39-11.06,16.56s.08-14,2.31-50.79c.32-5.34,1.31-22.31,1.31-22.31h0Z"/><path class="cls-33" d="M1912.53,838.54a502.26,502.26,0,0,0-130.44,112.73c-28.68,35.17-72.29,88.67-88.09,168.45-8.42,42.53-4.27,80.67,4.35,155.22a1563.32,1563.32,0,0,0,30.47,175.51l14.85,6c13.25-24.36,30.59-62.92,36.81-112.22,10.17-80.67-20-106.3-5.52-163.51,12.55-49.56,48.9-79.94,121.62-140.72,59.74-49.93,114.82-79.55,135.27-141.83,3.47-10.58,6.42-23.55.76-35.43C2020.41,837.1,1973.74,828.16,1912.53,838.54Z"/><path d="M1963.91,521c-16.71-3.59-44.18-2.88-70.38-23.5-7.88-6.21-35.82-28.21-32.42-59.68,3-27.71,29.24-42.6,32.47-44.38,18.59-10.23,37.12-8,57.68-5.15,26.65,3.65,35.51,10.93,54,15.92,45.82,12.35,61.32-13.43,107.45-11.25,59,2.78,64.07,46.33,113.68,47.41,55.69,1.22,66.36-53.28,121.35-62.52,76.32-12.82,191.81,69.35,189.48,164.07-1.34,54.7-42.08,117.4-94.11,136.22-30.33,11-63,7.49-72.4,27.21-6.64,14,8.3,24.85,6.89,49.3-1.82,31.53-29,53.65-33.34,57.23-40.69,33.16-131.92,16.41-194.21-30.52C2037.74,696.73,2054.74,540.55,1963.91,521Z"/><path class="cls-10" d="M2092.94,509.76a1195.83,1195.83,0,0,0-130-8.87c-102.47-1.39-117.14,11.6-120.89,21.22-7,17.93,5,26.92-1.82,58.18-4.07,18.69-.22,27.21-8.09,47.3-7.67,19.57-1.65,30.1,5.13,76,8.67,58.69,12.67,88.52-3.76,112.18-11.41,16.44-24.18,17.83-23,25.64,2.59,16.64,60.12,7.46,133,39.4,21.08,9.25,40.49,20.64,56.76,30.2,38.11,22.37,45.16,30.92,62.81,41.06,55.8,32.06,139.64,35.15,183.58-3.62,16.38-14.46,28.31-35.7,22.94-43.48-7.31-10.59-40,13.46-70-1.21-19.88-9.72-16.11-25.44-39.1-44-27.67-22.3-46.91-10.62-65.74-25.12-29.38-22.64-16-76.83-7.77-167.68A1515,1515,0,0,0,2092.94,509.76Z"/><path class="cls-34" d="M1982.05,488.65c14,8.67,36.57,20,39,23.08s-68.44,15.22-112.57-7.06c0,0-6.84-3.8,19.76-9.12,5.67-1.13,4.56-12.16,3.8-23.56l5.32-9.89S1968.07,480,1982.05,488.65Z"/><path class="cls-35" d="M1946.79,455.39s5.48,23.26-15,34.75c-18.34,10.3-49.37-31.9-43.57-47.58,1.93-5.23,8.84-11.95,16-14.21,5.08-1.59,24.29-1,32.52,15.19,2.15-4.73,6-7.2,8.6-6.43,3.29,1,3.77,7,3.89,8.33A16.77,16.77,0,0,1,1946.79,455.39Z"/><path class="cls-36" d="M1915,828.22c21.1,8.74,24,27.64,53.13,38.37,27.83,10.22,37.17-2.59,64.93,5.9,41.7,12.75,57.64,53,64,49.19,5.78-3.48.24-42-26.56-66.9-30.78-28.64-63.93-15.52-83.63-45.26-7.66-11.56-13.57-30-6.89-44.27,9.06-19.27,32.72-12.59,45.26-28.53,22.53-28.64-30.19-80.3-15.74-124,5.77-17.43,24.12-39.27,83.33-53.89-.81,43.77-3.33,80.35-5.85,108.12-8.24,90.85-21.61,145,7.77,167.67,18.83,14.51,38.07,2.83,65.74,25.13,23,18.53,19.22,34.25,39.1,44,30,14.67,62.74-9.38,70,1.21,5.37,7.78-6.56,29-22.94,43.48-43.94,38.77-127.78,35.68-183.58,3.62-17.65-10.14-24.7-18.69-62.81-41.06-16.27-9.56-35.68-21-56.76-30.2-51.11-22.41-94.66-24.58-117-29.63C1870.89,821.6,1897.9,821.12,1915,828.22Z"/><path class="cls-24" d="M1711.36,857.9l267.71,13a11.24,11.24,0,0,1,9,5.28l7.41,11.89a8.7,8.7,0,0,1-7.72,13.29l-283.56-10.8Z"/><path class="cls-25" d="M1465.6,710l276.58,5.36a23.22,23.22,0,0,1,19.72,11.73l95.77,168.51L1565.57,884a23.78,23.78,0,0,1-19.45-11.54l-88.73-148.25A9.36,9.36,0,0,1,1465.6,710Z"/><path class="cls-37" d="M1761.9,727.09a23.22,23.22,0,0,0-19.72-11.73l-6.07-.12c-.9,8.93-3.64,17.1-9.1,23.69-17.06,20.59-45.39,7.89-66.51,29.68-23.2,23.93-1.77,52.41-22.51,74.69-21.83,23.44-57.13,4.35-97.71,19.35l5.84,9.76A23.77,23.77,0,0,0,1565.57,884l292.1,11.64Z"/><path class="cls-10" d="M1935.22,858q-4.53-11.94-9-23.9c33.34-9.14,79.45-22.64,126.75-39.54,11.68-4.18,16-9.58,19.09-13.72,24.24-32.16-37.46-88.9-36.36-162.51.77-51,31.7-109.41,59-110.07C2150,507,2272.2,742.08,2169.3,842.43,2118.23,892.23,2022.81,898,1935.22,858Z"/><path class="cls-35" d="M1926.17,834.14c-20.93-11.12-46,.28-47.6,1a62.71,62.71,0,0,0-18.06,13c-.76,1-9.84,13.62-6.53,17.66,2.65,3.23,12.91.55,25.25-7.13a96.18,96.18,0,0,1,22.1-.54c16.94,1.57,24.7,6.92,30.85,2.3,4.51-3.38,6-10.53,4.42-15.85C1934.86,838.86,1929.71,836,1926.17,834.14Z"/><path class="cls-38" d="M1016.1,280.43c0,91.84,92.38,171.07,207.84,177.05,117.15,6.06,213.39-65.39,213.39-159.69s-96.24-173.68-213.39-177.27C1108.48,117,1016.1,188.59,1016.1,280.43Z"/><path class="cls-25" d="M2547.25,1406.2c-20.45-25.61-32.22-55.67-32.22-87.82,0-93.5,99.55-169.3,222.36-169.3s222.36,75.8,222.36,169.3-99.56,169.3-222.36,169.3c-46,0-88.79-10.65-124.27-28.89-23.44,4-59.84,10.73-79,14.3a7.39,7.39,0,0,1-8.27-9.86Z"/><g class="cls-39"><path class="cls-25" d="M2615.71,1354.21c49.86-21,104.69,23.28,139-7.58,34.56-31.11-2.77-92.62,30.32-136.45,15.78-20.89,42.29-30.78,72.62-34.24,61.44,30.13,102.14,82.66,102.14,142.44,0,93.5-99.56,169.3-222.36,169.3-46,0-88.79-10.65-124.27-28.89-18.5,3.16-45.06,8-64.88,11.67C2562.86,1394.66,2589.76,1365.11,2615.71,1354.21Z"/></g><rect class="cls-8" x="2591.33" y="1263.47" width="292.12" height="17.81" rx="8.26"/><rect class="cls-8" x="2591.33" y="1313.34" width="292.12" height="17.81" rx="8.26"/><rect class="cls-8" x="2591.33" y="1363.22" width="153.19" height="17.81" rx="8.5"/><path class="cls-40" d="M496.6,572.48c0,91.84,92.38,171.07,207.84,177,117.15,6.06,213.39-65.39,213.39-159.68S821.59,416.16,704.44,412.57C589,409,496.6,480.64,496.6,572.48Z"/><text class="cls-41" transform="translate(1079.68 336.95)">CSS</text><path class="cls-42" d="M1396.58,874.45c-3.85-91.76-99.47-167.05-215.08-168.18-117.3-1.15-210.45,74.28-206.5,168.49s103.43,169.49,220.63,168.17C1311.14,1041.63,1400.43,966.21,1396.58,874.45Z"/><text class="cls-41" transform="translate(567.58 639.56)">&lt;/&gt;</text><text class="cls-43" transform="translate(1050.63 854.25)">Node.<tspan x="89.96" y="117.6">js</tspan></text><polygon class="cls-14" points="1739.69 1596.51 1268.68 1599.96 1268.68 1566.09 1739.69 1563.62 1739.69 1596.51"/></g></g></svg>