<svg id="Layer_1" data-name="Layer 1" xmlns="http://www.w3.org/2000/svg" viewBox="0 0 38.71 45.72"><defs><style>.cls-1{fill:#fff;}</style></defs><path class="cls-1" d="M36.17,15a10.8,10.8,0,0,1-.76,1A12.34,12.34,0,0,1,33,18.3l-.11.21a17.16,17.16,0,0,1-.15,2.95,19.79,19.79,0,0,1-5.38,11.16,17.94,17.94,0,0,1-9.19,5.1,20.89,20.89,0,0,1-3.71.44h-.6a18.61,18.61,0,0,1-10-2.87l-.16-.09c.52,0,1,.08,1.56.08a13.58,13.58,0,0,0,5.1-1,13.38,13.38,0,0,0,3.17-1.86,6.58,6.58,0,0,1-6.14-4.61,6.41,6.41,0,0,0,1.23.12,6.76,6.76,0,0,0,1.61-.2l.1,0a6.63,6.63,0,0,1-5.25-6.58,6.62,6.62,0,0,0,3,.8,6.64,6.64,0,0,1-2.71-4,6.57,6.57,0,0,1,.76-4.82,18.89,18.89,0,0,0,13.66,7c0-.28-.07-.5-.11-.74a6.45,6.45,0,0,1,1-4.34,6.39,6.39,0,0,1,4.53-3,7.14,7.14,0,0,1,1.21-.1A6.41,6.41,0,0,1,31,13.78a.33.33,0,0,0,.24.12l.1,0a12.87,12.87,0,0,0,3.88-1.48l.09-.05A6.52,6.52,0,0,1,32.45,16,12.64,12.64,0,0,0,36.17,15Z"/></svg>