<svg id="Layer_1" data-name="Layer 1" xmlns="http://www.w3.org/2000/svg" viewBox="0 0 38.3 30.94"><defs><style>.cls-1{fill:#fff;}</style></defs><path class="cls-1" d="M33.34,6.77c1.15,3,1.1,14-.28,16.94a3.85,3.85,0,0,1-1.74,1.76c-1.08.56-7.34.82-13.48.82-5.65,0-11.19-.22-12.49-.65a3.69,3.69,0,0,1-2.44-2.39c-1-2.92-1.27-15.16.8-17.58A4.07,4.07,0,0,1,6.4,4.25c2.46-.26,7.21-.39,11.89-.39,5.84,0,11.57.2,12.66.59A3.78,3.78,0,0,1,33.34,6.77ZM14.17,19.91c3.32-1.73,6.63-3.44,10-5.17l-9.9-5.19c0,3.46-.06,6.89-.08,10.36"/></svg>