<svg width="86" height="86" viewBox="0 0 86 86" fill="none" xmlns="http://www.w3.org/2000/svg">
<path d="M86 43C86 19.2518 66.7482 0 43 0C19.2518 0 0 19.2518 0 43C0 66.7482 19.2518 86 43 86C66.7482 86 86 66.7482 86 43Z" fill="#293A7D"/>
<path d="M28.3397 52.2979V53.3585H31.2646V55.3294H28.3397V57.9344H25.6522V50.3279H31.9561V52.2987H28.3397V52.2979Z" fill="white"/>
<path d="M40.119 54.6611C40.119 56.9204 38.8947 58.05 36.4461 58.05C33.9975 58.05 32.7732 56.9204 32.7732 54.6611V50.3279H35.4705V54.8689C35.4705 55.2529 35.553 55.5429 35.7178 55.7388C35.8826 55.9349 36.1272 56.0326 36.4497 56.0326C36.7722 56.0326 37.0185 55.9349 37.1879 55.7388C37.3572 55.5426 37.4414 55.2532 37.4414 54.8689V50.3279H40.1289V54.6611H40.119Z" fill="white"/>
<path d="M48.375 52.2979H46.001V57.9345H43.3135V52.2979H40.9243V50.327H48.3696V52.2979H48.375Z" fill="white"/>
<path d="M56.5316 54.6611C56.5316 56.9204 55.3073 58.05 52.8586 58.05C50.41 58.05 49.1857 56.9204 49.1857 54.6611V50.3279H51.8822V54.8689C51.8822 55.2529 51.9646 55.5429 52.1294 55.7388C52.2943 55.9349 52.5397 56.0326 52.8622 56.0326C53.1847 56.0326 53.4311 55.9349 53.5995 55.7388C53.7679 55.5426 53.853 55.2532 53.853 54.8689V50.3279H56.5405V54.6611H56.5316Z" fill="white"/>
<path d="M60.7035 55.4109H59.9662V57.9353H57.3378V50.3279H61.464C62.4793 50.3279 63.2459 50.5411 63.7636 50.9675C64.2814 51.394 64.5406 52.0297 64.5412 52.8748C64.5412 53.9892 64.0841 54.7384 63.1697 55.1224L64.9676 57.9353H62.0517L60.7035 55.4109ZM59.9662 53.647H60.923C61.2604 53.647 61.4993 53.595 61.6396 53.4911C61.7812 53.3872 61.8528 53.2053 61.8528 52.9438C61.8528 52.6822 61.7812 52.5093 61.6396 52.4063C61.4981 52.3032 61.2571 52.2441 60.923 52.2441H59.9662V53.647Z" fill="white"/>
<path d="M71.9175 55.9636V57.9344H65.4675V50.3279H71.784V52.2987H68.1487V53.2439H71.0763V55.0651H68.1487V55.9609H71.9175V55.9636Z" fill="white"/>
<path d="M40.119 44.9018C40.5114 44.9018 40.796 44.7501 40.9728 44.4468C41.1495 44.1434 41.2376 43.6611 41.237 43C41.237 42.3389 41.1489 41.8566 40.9728 41.5532C40.7966 41.2498 40.512 41.0981 40.119 41.0981V39.0807C41.3338 39.0807 42.2807 39.4247 42.9597 40.1127C43.6388 40.8007 43.9789 41.7631 43.9801 43C43.9801 44.2374 43.64 45.1999 42.9597 45.8873C42.2795 46.5747 41.3326 46.9187 40.119 46.9193V44.9018Z" fill="white"/>
<path d="M52.1922 43.5304C52.1922 45.7896 50.9679 46.9193 48.5192 46.9193C46.0706 46.9193 44.8463 45.7896 44.8463 43.5304V39.1972H47.5437V43.7382C47.5437 44.1222 47.6261 44.4122 47.7909 44.608C47.9558 44.8042 48.2003 44.9019 48.5228 44.9019C48.8453 44.9019 49.0917 44.8042 49.261 44.608C49.4303 44.4119 49.5145 44.1225 49.5145 43.7382V39.1972H52.202V43.5304H52.1922Z" fill="white"/>
<path d="M56.365 44.2792H55.6313V46.8037H52.9993V39.1963H57.1255C58.1408 39.1963 58.907 39.4095 59.4242 39.8359C59.9414 40.2623 60.2 40.899 60.2 41.7458C60.2 42.8602 59.7426 43.6095 58.8276 43.9935L60.6255 46.8064H57.7123L56.365 44.2792ZM55.6313 42.5162H56.588C56.9267 42.5162 57.1655 42.4643 57.3047 42.3604C57.4471 42.2565 57.5188 42.0746 57.5188 41.813C57.5188 41.5514 57.4471 41.3785 57.3047 41.271C57.1623 41.1635 56.9231 41.1089 56.588 41.1089H55.6313V42.5162Z" fill="white"/>
<path d="M19.4298 44.1646V46.8037H16.7423V44.1646L14.0825 39.1963H16.7566L17.5628 40.9369L18.1003 42.3201L18.6378 40.9369L19.4441 39.1963H22.0913L19.4298 44.1646Z" fill="white"/>
<path d="M25.654 46.9193C24.8549 46.9193 24.1654 46.7655 23.5855 46.4579C23.0125 46.1576 22.5456 45.6886 22.248 45.1142C21.9363 44.5253 21.781 43.8203 21.7822 42.9991C21.7834 42.1779 21.9386 41.4729 22.248 40.8841C22.5459 40.3099 23.0127 39.8408 23.5855 39.5403C24.1654 39.2333 24.8549 39.0795 25.654 39.0789V41.0964C25.2622 41.0964 24.9761 41.2481 24.7958 41.5514C24.6154 41.8548 24.5258 42.3371 24.527 42.9982C24.527 43.6593 24.6166 44.1416 24.7958 44.445C24.9749 44.7484 25.261 44.9001 25.654 44.9001V46.9193Z" fill="white"/>
<path d="M47.575 28.0656V35.673H44.8875V32.8377H42.8038V35.673H40.1163V28.0656H42.8038V30.8668H44.8902V28.0656H47.575Z" fill="white"/>
<path d="M53.1229 34.2208H51.0715L50.7131 35.673H48.0355L50.5026 28.0656H53.7276L56.2055 35.673H53.4642L53.1229 34.2208ZM52.7323 32.5501L52.116 30.0104H52.0811L51.7792 31.304L51.4674 32.5483H52.7216L52.7323 32.5501Z" fill="white"/>
<path d="M59.9993 35.7877C59.2002 35.7877 58.5108 35.6339 57.9309 35.3263C57.3579 35.026 56.891 34.5569 56.5934 33.9826C56.2816 33.3937 56.1263 32.6887 56.1275 31.8675C56.1287 31.0463 56.284 30.3413 56.5934 29.7524C56.8912 29.1782 57.3581 28.7092 57.9309 28.4087C58.5108 28.1017 59.2002 27.9479 59.9993 27.9473C60.8916 27.9473 61.6521 28.1375 62.281 28.518C62.9099 28.8984 63.302 29.4765 63.4572 30.2523L61.1514 31.1481C61.0916 30.6793 60.9803 30.3643 60.8172 30.203C60.656 30.0418 60.4051 29.9612 60.0674 29.9612C59.6679 29.9612 59.3693 30.1149 59.1716 30.4225C58.9739 30.7301 58.8739 31.2102 58.8715 31.863C58.8715 32.5158 58.9673 32.9959 59.159 33.3035C59.3507 33.6111 59.647 33.7649 60.0477 33.7649C60.406 33.7649 60.6694 33.6842 60.8307 33.523C60.9919 33.3617 61.0994 33.0966 61.1424 32.7275L63.5164 33.3384C63.124 34.9718 61.9517 35.7883 59.9993 35.7877Z" fill="white"/>
<path d="M67.4804 32.826L66.8587 33.6833V35.6774H64.1712V28.0656H66.8587V30.9009L68.8403 28.0656H71.6989L69.3697 31.0854L71.9049 35.673H68.8985L67.4804 32.826Z" fill="white"/>
</svg>
