<svg id="Layer_1" data-name="Layer 1" xmlns="http://www.w3.org/2000/svg" viewBox="0 0 40.56 33.89"><defs><style>.cls-1{fill:#fff;}</style></defs><path class="cls-1" d="M11.26,2a3.37,3.37,0,0,1,3.38,3.41,3.43,3.43,0,0,1-3.43,3.41A3.39,3.39,0,0,1,7.82,5.45,3.45,3.45,0,0,1,11.26,2Z"/><polygon class="cls-1" points="14.14 11.43 13.99 30.36 8.11 30.36 8.25 11.43 14.14 11.43"/><path class="cls-1" d="M29.11,11c6,0,7,3.91,7,9L36,30.36H30.14l.07-9.2c0-2.2,0-5-3-5S23.65,18.52,23.63,21l-.07,9.36H17.68l.14-18.93h5.64l0,2.59h.08A6.26,6.26,0,0,1,29.11,11Z"/></svg>